<svg width="21" height="25" viewBox="0 0 21 25" fill="none" xmlns="http://www.w3.org/2000/svg">
<path d="M10.1798 10.8202C12.8032 10.8202 14.9298 8.69357 14.9298 6.07022C14.9298 3.44687 12.8032 1.32022 10.1798 1.32022C7.55646 1.32022 5.42981 3.44687 5.42981 6.07022C5.42981 8.69357 7.55646 10.8202 10.1798 10.8202Z" stroke="#3A6AC4" stroke-width="1.5"/>
<path d="M19.9976 18.7191C19.9992 18.5244 20 18.3264 20 18.1254C20 15.1744 15.7464 12.7816 10.5 12.7816C5.25362 12.7816 1 15.1744 1 18.1254C1 21.0763 1 23.4691 10.5 23.4691C13.1493 23.4691 15.06 23.2827 16.4375 22.9502" stroke="#3A6AC4" stroke-width="1.5" stroke-linecap="round"/>
<path d="M14.9102 6.12111C14.9102 8.59287 12.852 10.6179 10.2866 10.6179C7.72113 10.6179 5.66296 8.59287 5.66296 6.12111C5.66296 3.64934 7.72113 1.62433 10.2866 1.62433C12.852 1.62433 14.9102 3.64934 14.9102 6.12111Z" fill="white" stroke="#3A6AC4"/>
<path d="M8.16442 8.61262C8.24763 8.64624 8.33167 8.67601 8.41597 8.70243C8.41052 8.70209 8.40508 8.70167 8.39965 8.70117C8.32931 8.69473 8.24837 8.67493 8.16442 8.61262ZM6.53322 5.8543C6.53322 6.5977 6.69 7.1861 6.97375 7.64014L6.75745 8.12151L6.75018 7.62156C6.75003 7.62157 6.74988 7.62157 6.74973 7.62157C6.62997 7.62334 6.42532 7.63659 6.2564 7.76057C6.17739 7.81856 6.10544 7.90193 6.06276 8.00863C5.80576 7.43333 5.66296 6.79547 5.66296 6.12339C5.66296 3.56875 7.73171 1.5 10.2864 1.5C12.841 1.5 14.9097 3.56875 14.9097 6.12339C14.9097 8.04597 13.7341 9.69778 12.0692 10.394C12.0696 10.344 12.0699 10.2897 12.0703 10.2316C12.0719 9.98617 12.0734 9.67604 12.0734 9.33197C12.0734 9.1217 12.0482 8.92792 12.0012 8.75305C12.3991 8.64987 12.8007 8.48039 13.1453 8.19136C13.727 7.70357 14.0653 6.94677 14.0653 5.8543C14.0653 5.27263 13.8902 4.77544 13.5935 4.3665C13.6624 4.04833 13.6957 3.53998 13.453 2.9339L13.3664 2.71747L13.1449 2.64472L12.9888 3.11975C13.1449 2.64472 13.1444 2.64456 13.1439 2.6444L13.1429 2.64408L13.1409 2.64344L13.1368 2.64214L13.128 2.63949C13.1219 2.6377 13.1153 2.63589 13.1083 2.63407C13.0942 2.63045 13.0782 2.62685 13.0604 2.62351C13.0247 2.61683 12.9818 2.61131 12.9317 2.60879C12.8311 2.60373 12.704 2.6109 12.5496 2.64321C12.2798 2.69967 11.9301 2.83203 11.4909 3.10632C11.1029 3.01676 10.7002 2.97215 10.2993 2.97215C9.89782 2.97215 9.4949 3.01647 9.10626 3.10648C8.66745 2.8347 8.31861 2.70291 8.05026 2.64588C7.89672 2.61324 7.77056 2.60533 7.67089 2.60946C7.62121 2.61152 7.57873 2.61655 7.54335 2.62275C7.52569 2.62585 7.50988 2.62922 7.49591 2.63262C7.48893 2.63432 7.48241 2.63603 7.47637 2.63772L7.46766 2.64022L7.46357 2.64145L7.46159 2.64205L7.46062 2.64236C7.46013 2.64251 7.45965 2.64266 7.60927 3.11975L7.45965 2.64266L7.23312 2.7137L7.14499 2.93415C6.9027 3.54027 6.93593 4.04861 7.00475 4.36678C6.70758 4.77776 6.53322 5.27896 6.53322 5.8543ZM6.94507 7.98245C6.94162 7.97937 6.9402 7.9778 6.94034 7.97779C6.94049 7.97777 6.94221 7.97931 6.94507 7.98245ZM8.51498 10.3941C8.4758 10.3779 8.43689 10.3611 8.39826 10.3438C8.43631 10.3443 8.47506 10.344 8.51452 10.343C8.51464 10.3568 8.51476 10.3703 8.51488 10.3836C8.51491 10.3871 8.51495 10.3906 8.51498 10.3941Z" fill="#3A6AC4" stroke="#3A6AC4"/>
</svg>
